<svg xmlns="http://www.w3.org/2000/svg" width="461" height="334.7" viewBox="0 0 461 334.7" role="img" aria-label="순공대장 SOONGONG"><rect width="461" height="334.7" rx="38.3" fill="#5E9C7B"/><polygon points="187.12,111.79 187.12,72.37 214.71,88.14 230.48,56.6 246.25,88.14 273.84,72.37 273.84,111.79" fill="#FFF1D6" stroke="#FFF1D6" stroke-width="11.83" stroke-linejoin="round"/><g transform="translate(54.44,226.47) scale(0.108,-0.108)"><path d="M681 288Q631 286 584 285Q537 284 486 284Q485 263 484 246.5Q483 230 483 202Q481 191 473.5 183Q466 175 456 169Q446 163 434.5 160.5Q423 158 413 158Q383 160 366.5 173Q350 186 347 216Q345 236 346.5 251Q348 266 348 286Q325 286 288.5 286.5Q252 287 213 287.5Q174 288 138 289Q102 290 81 292Q65 294 55.5 296.5Q46 299 33 311Q26 317 23 327Q20 337 20 348Q20 369 33 382Q40 390 52 394Q64 398 75 400Q86 402 94.5 402Q103 402 104 402H676Q691 402 706 402Q721 402 735 401Q749 400 762.5 397Q776 394 787 384Q798 376 799.5 366Q801 356 801 344Q801 329 792.5 317Q784 305 769 300Q749 292 725.5 290.5Q702 289 681 288ZM259 500Q240 487 221.5 472Q203 457 177 452Q168 450 158.5 448Q149 446 140 447Q131 448 122.5 452.5Q114 457 107 468Q99 480 98.5 490.5Q98 501 102.5 510Q107 519 114 527Q121 535 129 542Q159 569 191.5 598.5Q224 628 258 651Q269 658 283.5 670.5Q298 683 312 695Q328 709 345 724Q343 738 344 751Q345 762 349 774.5Q353 787 364 795Q377 804 399 807Q421 810 437 806Q460 800 467.5 787Q475 774 478 756Q480 741 484 728Q488 715 499 702Q507 693 519.5 684Q532 675 542 667Q577 637 610.5 611Q644 585 680 555Q692 546 700.5 531.5Q709 517 712 502.5Q715 488 710.5 474.5Q706 461 691 453Q662 442 635.5 454.5Q609 467 590 484Q570 499 544 514.5Q518 530 499 547L410 611Q396 600 385 591Q375 583 366.5 577Q358 571 356 569Q334 552 308.5 534.5Q283 517 259 500ZM709 89Q710 89 716 87Q722 85 729.5 80.5Q737 76 743.5 68.5Q750 61 752 51Q758 13 740 -8Q729 -22 716 -25Q703 -28 702 -28H156Q118 -28 96 -15.5Q74 -3 74 20V119Q72 141 74 164Q76 185 90 198Q104 211 125 211Q130 211 138.5 210.5Q147 210 152 208Q165 204 172 196Q179 188 183 177.5Q187 167 188 155.5Q189 144 190 133Q190 125 191 111.5Q192 98 194 91Q196 90 212.5 88.5Q229 87 264 87Q294 87 317.5 88Q341 89 342 89ZM1433 220Q1455 212 1473 202.5Q1491 193 1504 178Q1529 152 1529 103Q1529 56 1504 27Q1491 13 1473 3.5Q1455 -6 1433 -14Q1411 -21 1384.5 -25.5Q1358 -30 1328 -33Q1299 -35 1267.5 -36Q1236 -37 1201 -37Q1166 -37 1134.5 -36Q1103 -35 1073 -33Q1044 -30 1017.5 -25.5Q991 -21 969 -14Q947 -6 929.5 3.5Q912 13 898 27Q873 56 873 103Q873 144 898 172Q912 186 929.5 197Q947 208 969 216Q991 224 1017.5 228.5Q1044 233 1073 236Q1103 240 1134.5 241.5Q1166 243 1201 243Q1236 243 1267.5 242Q1299 241 1328 239Q1358 237 1384.5 232.5Q1411 228 1433 220ZM1410 523Q1410 529 1410.5 540Q1411 551 1411 563.5Q1411 576 1409.5 586.5Q1408 597 1404 602Q1400 606 1387.5 607Q1375 608 1360 608Q1345 608 1331 607Q1317 606 1310 606Q1257 606 1198.5 607Q1140 608 1088 609Q1036 610 996.5 611Q957 612 942 613Q918 613 898 623Q878 633 873 661Q868 680 874.5 702Q881 724 900 735Q911 741 923 743Q935 745 948 747Q1013 752 1075.5 751.5Q1138 751 1203 749Q1254 749 1303.5 748Q1353 747 1404 747Q1429 747 1460 742.5Q1491 738 1510 717Q1524 700 1525.5 681Q1527 662 1529 642V572Q1530 552 1529.5 529Q1529 506 1524.5 486Q1520 466 1509.5 452Q1499 438 1479 437Q1453 435 1439 442.5Q1425 450 1418.5 462Q1412 474 1411 490Q1410 506 1410 523ZM1565 397Q1574 389 1575 372.5Q1576 356 1573 343Q1569 332 1563 329Q1560 324 1553.5 321Q1547 318 1541 316Q1535 314 1529.5 313Q1524 312 1519 312Q1474 306 1432 308Q1390 310 1347 310H952Q929 307 906 310Q893 310 881.5 312.5Q870 315 860 323Q846 334 842 354Q838 374 849 389Q860 401 875 409Q907 418 940 416.5Q973 415 1006 415H1113Q1113 433 1113 452Q1113 471 1115 490Q1117 520 1136.5 532.5Q1156 545 1182 542Q1207 540 1219 527Q1231 514 1235.5 495Q1240 476 1239.5 455Q1239 434 1239 415H1495Q1508 415 1518.5 414.5Q1529 414 1537 411Q1546 407 1551.5 405.5Q1557 404 1565 397ZM1380 74Q1388 79 1393 86.5Q1398 94 1398 103Q1398 111 1393 117Q1388 123 1380 126Q1371 131 1360 133.5Q1349 136 1334 138Q1319 142 1303 142.5Q1287 143 1270 145H1132Q1115 143 1100 142.5Q1085 142 1071 138Q1043 135 1028 126Q1010 120 1010 103Q1010 89 1028 80Q1036 75 1046.5 72.5Q1057 70 1071 67Q1085 65 1100 64Q1115 63 1132 63Q1149 63 1166 62Q1183 61 1201 61H1270Q1287 61 1303 61Q1319 61 1334 63Q1349 65 1360 67.5Q1371 70 1380 74ZM2342 723Q2347 714 2346.5 703.5Q2346 693 2348 682V89Q2348 75 2347.5 60.5Q2347 46 2345 32Q2343 10 2327 -3.5Q2311 -17 2288 -15Q2269 -13 2259 -2.5Q2249 8 2244.5 23Q2240 38 2239 55.5Q2238 73 2238 89V335H2167V92Q2169 78 2168 66.5Q2167 55 2167 44Q2165 30 2161 21Q2157 12 2153 6Q2144 -5 2128.5 -11Q2113 -17 2099 -12Q2083 -6 2074 5Q2065 16 2060.5 29.5Q2056 43 2055 57.5Q2054 72 2054 86Q2054 95 2052.5 101.5Q2051 108 2051 113V663Q2051 671 2052.5 679Q2054 687 2054 693Q2054 702 2056 710.5Q2058 719 2060 726Q2062 733 2066 739Q2070 745 2075 752Q2080 759 2086.5 762Q2093 765 2101 767Q2112 772 2123 767Q2128 765 2133.5 762.5Q2139 760 2141 755Q2148 750 2153.5 743.5Q2159 737 2161 726Q2163 717 2165 706Q2167 695 2167 682V456H2238V687Q2238 696 2238.5 705Q2239 714 2241 723Q2245 741 2253 752Q2260 759 2267 763Q2274 767 2285 767Q2296 769 2307 765.5Q2318 762 2325 755Q2331 748 2335.5 741Q2340 734 2342 723ZM1978 129Q1984 127 1988.5 123Q1993 119 1998 114Q2010 106 2010 88Q2012 81 2010.5 73.5Q2009 66 2007 61Q2002 53 1998 48.5Q1994 44 1989 40Q1983 38 1976 34.5Q1969 31 1960 31Q1953 29 1945 27Q1937 25 1930 25H1783Q1774 25 1763.5 26.5Q1753 28 1742 28Q1733 28 1722 30Q1711 32 1703 34Q1683 39 1667 51Q1660 56 1654.5 63.5Q1649 71 1644 82Q1635 91 1635 105Q1633 114 1632 121Q1631 128 1629 135V618Q1627 624 1626.5 632.5Q1626 641 1626 650Q1628 657 1629 666Q1630 675 1632 683Q1632 699 1641 713Q1646 718 1650.5 722Q1655 726 1661 728Q1674 737 1688 737Q1695 739 1700 739.5Q1705 740 1711 742H1897Q1904 740 1912.5 739.5Q1921 739 1928 737Q1946 737 1960 728Q1976 720 1981 704Q1983 697 1984.5 690Q1986 683 1984 675Q1984 665 1983.5 660Q1983 655 1981 650Q1973 639 1954 629Q1947 629 1932.5 627.5Q1918 626 1897 626H1795Q1781 626 1771 621Q1767 621 1763 612Q1761 607 1759 603Q1757 599 1757 594V556L1760 188Q1760 174 1760.5 165.5Q1761 157 1766 153Q1773 144 1792 144H1829Q1840 144 1851.5 142.5Q1863 141 1876 141H1925Q1931 141 1937.5 140.5Q1944 140 1951 138Q1964 138 1978 129ZM2472 121Q2472 166 2498.5 196Q2525 226 2570 243.5Q2615 261 2676 268Q2737 275 2806 275Q2875 275 2936 270Q2997 265 3042 248.5Q3087 232 3113.5 202Q3140 172 3140 121Q3140 71 3113.5 41Q3087 11 3042 -5.5Q2997 -22 2936 -27.5Q2875 -33 2806 -33Q2737 -33 2676 -27.5Q2615 -22 2570 -5.5Q2525 11 2498.5 41Q2472 71 2472 121ZM2720 647Q2720 647 2719.5 633Q2719 619 2719 602Q2719 585 2719.5 570Q2720 555 2720 553Q2725 548 2738 536.5Q2751 525 2760 517Q2770 509 2780.5 499.5Q2791 490 2802 479Q2809 472 2815 465.5Q2821 459 2826 454Q2845 435 2864 413Q2883 391 2890 368Q2893 359 2891 348Q2889 337 2878 329Q2861 319 2842 319Q2820 319 2800 328Q2780 337 2768 346Q2749 360 2733 375.5Q2717 391 2701 407Q2690 418 2676 432.5Q2662 447 2648 458L2621 431Q2614 424 2607 417.5Q2600 411 2594 404Q2581 390 2567 375.5Q2553 361 2535 348Q2494 318 2458 318Q2453 318 2449.5 318Q2446 318 2441 320Q2419 325 2412 338Q2405 349 2407.5 363Q2410 377 2416 388Q2424 399 2434 409.5Q2444 420 2454 431Q2463 441 2482.5 459.5Q2502 478 2522 497.5Q2542 517 2559 533Q2576 549 2580 553V647H2516Q2504 647 2488 646.5Q2472 646 2456.5 648Q2441 650 2428 656.5Q2415 663 2409 678Q2404 689 2402.5 703Q2401 717 2404 729Q2408 743 2422 748.5Q2436 754 2449 756Q2451 756 2465.5 756Q2480 756 2497 756Q2514 756 2529 756Q2544 756 2547 757H2781Q2821 757 2848.5 752Q2876 747 2893 727Q2898 721 2899.5 711Q2901 701 2899.5 690.5Q2898 680 2893.5 671Q2889 662 2881 658Q2873 655 2862 651.5Q2851 648 2843 647Q2829 646 2814.5 646.5Q2800 647 2786 647ZM3122 470V369Q3121 358 3119 346.5Q3117 335 3111 324Q3105 312 3094 304Q3086 299 3075.5 296.5Q3065 294 3057 294Q3049 294 3040 295.5Q3031 297 3025 301Q3015 307 3009 316Q3003 325 2999.5 333.5Q2996 342 2995 348.5Q2994 355 2994 355V695Q2993 699 2995 717Q2997 735 3003 747Q3008 757 3020.5 763Q3033 769 3047 771Q3064 773 3081 769Q3098 765 3106 756Q3112 748 3114.5 740.5Q3117 733 3119 725Q3122 715 3122.5 704Q3123 693 3122 682V613V604Q3122 599 3121.5 593.5Q3121 588 3122 581Q3126 581 3137 580.5Q3148 580 3160 579.5Q3172 579 3183 578Q3194 577 3199 576Q3219 572 3227 564.5Q3235 557 3237 546Q3240 535 3240 520.5Q3240 506 3234 496Q3222 476 3198 473.5Q3174 471 3145 470ZM3005 121Q3005 138 2987 148Q2969 158 2940.5 163Q2912 168 2876.5 169.5Q2841 171 2806 171Q2771 171 2736.5 169.5Q2702 168 2674.5 163Q2647 158 2630 148Q2613 138 2613 121Q2613 106 2630 96Q2647 86 2674.5 81Q2702 76 2736.5 74Q2771 72 2806 72Q2841 72 2876.5 72Q2912 72 2940.5 76Q2969 80 2987 90.5Q3005 101 3005 121Z" fill="#FFFFFF"/></g><g transform="translate(147.65,277.7) scale(0.026,-0.026)"><path d="M254.1201171875 88.11865234375Q312.48046875 88.11865234375 340.020751953125 111.658935546875Q367.56103515625 135.19921875 367.56103515625 169.759765625Q367.56103515625 200.68017578125 346.100830078125 220.240478515625Q324.640625 239.80078125 281.080078125 252.9208984375L215.67919921875 273.1611328125Q165.99951171875 289.52099609375 128.519775390625 310.98095703125Q91.0400390625 332.44091796875 70.460205078125 365.580810546875Q49.88037109375 398.720703125 49.88037109375 447.88037109375Q49.88037109375 528.72021484375 110.440185546875 575.820068359375Q171 622.919921875 275.99951171875 622.919921875Q331.91943359375 622.919921875 375.619384765625 611.659912109375Q419.3193359375 600.39990234375 444.539306640625 580.239990234375Q469.75927734375 560.080078125 469.75927734375 532.88037109375Q469.75927734375 514.12060546875 460.359375 499.540771484375Q450.95947265625 484.9609375 437.07958984375 475.60107421875Q413.51953125 492.72119140625 373.659423828125 505.561279296875Q333.79931640625 518.4013671875 286.67919921875 518.4013671875Q234.9189453125 518.4013671875 207.15869140625 499.14111328125Q179.3984375 479.880859375 179.3984375 447.88037109375Q179.3984375 422.47998046875 198.61865234375 406.479736328125Q217.8388671875 390.4794921875 258.439453125 378.3193359375L315.599609375 360.79931640625Q402.279296875 334.95947265625 449.939208984375 290.319580078125Q497.59912109375 245.6796875 497.59912109375 168.7998046875Q497.59912109375 86.919921875 435.29931640625 35.760009765625Q372.99951171875 -15.39990234375 257 -15.39990234375Q196 -15.39990234375 148.820068359375 -2.139892578125Q101.64013671875 11.1201171875 74.460205078125 34.260009765625Q47.2802734375 57.39990234375 47.2802734375 85.5595703125Q47.2802734375 108.3193359375 60.900146484375 124.13916015625Q74.52001953125 139.958984375 91.39990234375 147.8388671875Q116.7998046875 125.8388671875 158.079833984375 106.978759765625Q199.35986328125 88.11865234375 254.1201171875 88.11865234375ZM1346.3193359375 304Q1346.3193359375 200 1306.639404296875 128.780029296875Q1266.95947265625 57.56005859375 1198.57958984375 21.080078125Q1130.19970703125 -15.39990234375 1043.35986328125 -15.39990234375Q957.0400390625 -15.39990234375 888.400146484375 21.080078125Q819.76025390625 57.56005859375 780.3203125 128.780029296875Q740.88037109375 200 740.88037109375 304Q740.88037109375 408 781.3203125 478.97998046875Q821.76025390625 549.9599609375 890.14013671875 586.43994140625Q958.52001953125 622.919921875 1043.35986328125 622.919921875Q1128.7197265625 622.919921875 1197.339599609375 586.43994140625Q1265.95947265625 549.9599609375 1306.139404296875 478.97998046875Q1346.3193359375 408 1346.3193359375 304ZM1216.76123046875 304Q1216.76123046875 408.6005859375 1169.620849609375 463.98095703125Q1122.48046875 519.361328125 1043.35986328125 519.361328125Q965.71923828125 519.361328125 918.3388671875 464.220947265625Q870.95849609375 409.08056640625 870.95849609375 304Q870.95849609375 198.439453125 918.078857421875 143.299072265625Q965.19921875 88.15869140625 1043.83984375 88.15869140625Q1123.00048828125 88.15869140625 1169.880859375 143.299072265625Q1216.76123046875 198.439453125 1216.76123046875 304ZM2202.3193359375 304Q2202.3193359375 200 2162.639404296875 128.780029296875Q2122.95947265625 57.56005859375 2054.57958984375 21.080078125Q1986.19970703125 -15.39990234375 1899.35986328125 -15.39990234375Q1813.0400390625 -15.39990234375 1744.400146484375 21.080078125Q1675.76025390625 57.56005859375 1636.3203125 128.780029296875Q1596.88037109375 200 1596.88037109375 304Q1596.88037109375 408 1637.3203125 478.97998046875Q1677.76025390625 549.9599609375 1746.14013671875 586.43994140625Q1814.52001953125 622.919921875 1899.35986328125 622.919921875Q1984.7197265625 622.919921875 2053.339599609375 586.43994140625Q2121.95947265625 549.9599609375 2162.139404296875 478.97998046875Q2202.3193359375 408 2202.3193359375 304ZM2072.76123046875 304Q2072.76123046875 408.6005859375 2025.620849609375 463.98095703125Q1978.48046875 519.361328125 1899.35986328125 519.361328125Q1821.71923828125 519.361328125 1774.3388671875 464.220947265625Q1726.95849609375 409.08056640625 1726.95849609375 304Q1726.95849609375 198.439453125 1774.078857421875 143.299072265625Q1821.19921875 88.15869140625 1899.83984375 88.15869140625Q1979.00048828125 88.15869140625 2025.880859375 143.299072265625Q2072.76123046875 198.439453125 2072.76123046875 304ZM2485.48046875 472.28271484375 2598.11865234375 475.40283203125Q2602.11865234375 437.203125 2604.398681640625 395.203125Q2606.6787109375 353.203125 2607.458740234375 312.06298828125Q2608.23876953125 270.9228515625 2608.23876953125 232.8427734375V1.0400390625Q2600.8388671875 -0.9599609375 2584.5791015625 -3.699951171875Q2568.3193359375 -6.43994140625 2551.5595703125 -6.43994140625Q2516.1201171875 -6.43994140625 2500.80029296875 6.3798828125Q2485.48046875 19.19970703125 2485.48046875 50.67919921875ZM2999.63916015625 136.67724609375 2886.48095703125 133.55712890625Q2878.40087890625 210.83740234375 2877.380859375 284.657958984375Q2876.36083984375 358.478515625 2876.36083984375 426.55908203125V607.43994140625Q2884.7607421875 609.43994140625 2900.5205078125 612.179931640625Q2916.2802734375 614.919921875 2933.56005859375 614.919921875Q2968.99951171875 614.919921875 2984.3193359375 602.10009765625Q2999.63916015625 589.2802734375 2999.63916015625 557.80078125ZM2999.63916015625 178.19677734375V15.7998046875Q2988.2392578125 5.919921875 2968.239501953125 -0.52001953125Q2948.23974609375 -6.9599609375 2921.64013671875 -6.9599609375Q2891.400390625 -6.9599609375 2866.720703125 3.260009765625Q2842.041015625 13.47998046875 2824.68115234375 46.6396484375L2678.359375 310.001953125Q2665.75927734375 334.1220703125 2652.319091796875 359.90234375Q2638.87890625 385.6826171875 2626.71875 410.622802734375Q2614.55859375 435.56298828125 2605.07861328125 456.962890625L2485.48046875 429.3232421875V585.92041015625Q2496.3603515625 599.68017578125 2517.820068359375 607.080078125Q2539.27978515625 614.47998046875 2563.95947265625 614.47998046875Q2594.19921875 614.47998046875 2619.118896484375 604.02001953125Q2644.03857421875 593.56005859375 2660.91845703125 560.88037109375L2808.240234375 297.51806640625Q2821.3603515625 273.8779296875 2834.54052734375 247.857666015625Q2847.720703125 221.83740234375 2859.600830078125 196.897216796875Q2871.48095703125 171.95703125 2880.48095703125 150.55712890625ZM3828.119140625 294.6796875V82.95947265625Q3828.119140625 58.7197265625 3817.379150390625 45.019775390625Q3806.63916015625 31.31982421875 3784.19921875 19.39990234375Q3757.75927734375 4.9599609375 3709.199462890625 -5.219970703125Q3660.6396484375 -15.39990234375 3611.7998046875 -15.39990234375Q3517.35986328125 -15.39990234375 3442.5 18.1201171875Q3367.64013671875 51.64013671875 3324.76025390625 122.1201171875Q3281.88037109375 192.60009765625 3281.88037109375 302.52001953125Q3281.88037109375 408.56005859375 3325.7802734375 479.780029296875Q3369.68017578125 551 3443.239990234375 586.9599609375Q3516.7998046875 622.919921875 3605.99951171875 622.919921875Q3665.87939453125 622.919921875 3710.559326171875 610.199951171875Q3755.2392578125 597.47998046875 3779.71923828125 576.360107421875Q3804.19921875 555.240234375 3804.19921875 529.5205078125Q3804.19921875 510.7607421875 3793.79931640625 495.94091796875Q3783.3994140625 481.12109375 3769.51953125 473.2412109375Q3743.4794921875 489.80126953125 3705.99951171875 504.581298828125Q3668.51953125 519.361328125 3614.83935546875 519.361328125Q3556.63916015625 519.361328125 3510.43896484375 494.001220703125Q3464.23876953125 468.64111328125 3438.0986328125 420.3408203125Q3411.95849609375 372.04052734375 3411.95849609375 303Q3411.95849609375 229.4794921875 3438.138671875 181.69921875Q3464.31884765625 133.9189453125 3510.119140625 110.798828125Q3555.91943359375 87.6787109375 3613.759765625 87.6787109375Q3643.0400390625 87.6787109375 3667.600341796875 92.958740234375Q3692.16064453125 98.23876953125 3705.8408203125 104.8388671875V246.6005859375H3575.9599609375Q3571.52001953125 254.48046875 3567.320068359375 267.540283203125Q3563.1201171875 280.60009765625 3563.1201171875 295.39990234375Q3563.1201171875 321.51953125 3575.199951171875 334.139404296875Q3587.27978515625 346.75927734375 3607.5595703125 346.75927734375H3775.51953125Q3799.279296875 346.75927734375 3813.69921875 332.859375Q3828.119140625 318.95947265625 3828.119140625 294.6796875ZM4698.3193359375 304Q4698.3193359375 200 4658.639404296875 128.780029296875Q4618.95947265625 57.56005859375 4550.57958984375 21.080078125Q4482.19970703125 -15.39990234375 4395.35986328125 -15.39990234375Q4309.0400390625 -15.39990234375 4240.400146484375 21.080078125Q4171.76025390625 57.56005859375 4132.3203125 128.780029296875Q4092.88037109375 200 4092.88037109375 304Q4092.88037109375 408 4133.3203125 478.97998046875Q4173.76025390625 549.9599609375 4242.14013671875 586.43994140625Q4310.52001953125 622.919921875 4395.35986328125 622.919921875Q4480.7197265625 622.919921875 4549.339599609375 586.43994140625Q4617.95947265625 549.9599609375 4658.139404296875 478.97998046875Q4698.3193359375 408 4698.3193359375 304ZM4568.76123046875 304Q4568.76123046875 408.6005859375 4521.620849609375 463.98095703125Q4474.48046875 519.361328125 4395.35986328125 519.361328125Q4317.71923828125 519.361328125 4270.3388671875 464.220947265625Q4222.95849609375 409.08056640625 4222.95849609375 304Q4222.95849609375 198.439453125 4270.078857421875 143.299072265625Q4317.19921875 88.15869140625 4395.83984375 88.15869140625Q4475.00048828125 88.15869140625 4521.880859375 143.299072265625Q4568.76123046875 198.439453125 4568.76123046875 304ZM4981.48046875 472.28271484375 5094.11865234375 475.40283203125Q5098.11865234375 437.203125 5100.398681640625 395.203125Q5102.6787109375 353.203125 5103.458740234375 312.06298828125Q5104.23876953125 270.9228515625 5104.23876953125 232.8427734375V1.0400390625Q5096.8388671875 -0.9599609375 5080.5791015625 -3.699951171875Q5064.3193359375 -6.43994140625 5047.5595703125 -6.43994140625Q5012.1201171875 -6.43994140625 4996.80029296875 6.3798828125Q4981.48046875 19.19970703125 4981.48046875 50.67919921875ZM5495.63916015625 136.67724609375 5382.48095703125 133.55712890625Q5374.40087890625 210.83740234375 5373.380859375 284.657958984375Q5372.36083984375 358.478515625 5372.36083984375 426.55908203125V607.43994140625Q5380.7607421875 609.43994140625 5396.5205078125 612.179931640625Q5412.2802734375 614.919921875 5429.56005859375 614.919921875Q5464.99951171875 614.919921875 5480.3193359375 602.10009765625Q5495.63916015625 589.2802734375 5495.63916015625 557.80078125ZM5495.63916015625 178.19677734375V15.7998046875Q5484.2392578125 5.919921875 5464.239501953125 -0.52001953125Q5444.23974609375 -6.9599609375 5417.64013671875 -6.9599609375Q5387.400390625 -6.9599609375 5362.720703125 3.260009765625Q5338.041015625 13.47998046875 5320.68115234375 46.6396484375L5174.359375 310.001953125Q5161.75927734375 334.1220703125 5148.319091796875 359.90234375Q5134.87890625 385.6826171875 5122.71875 410.622802734375Q5110.55859375 435.56298828125 5101.07861328125 456.962890625L4981.48046875 429.3232421875V585.92041015625Q4992.3603515625 599.68017578125 5013.820068359375 607.080078125Q5035.27978515625 614.47998046875 5059.95947265625 614.47998046875Q5090.19921875 614.47998046875 5115.118896484375 604.02001953125Q5140.03857421875 593.56005859375 5156.91845703125 560.88037109375L5304.240234375 297.51806640625Q5317.3603515625 273.8779296875 5330.54052734375 247.857666015625Q5343.720703125 221.83740234375 5355.600830078125 196.897216796875Q5367.48095703125 171.95703125 5376.48095703125 150.55712890625ZM6324.119140625 294.6796875V82.95947265625Q6324.119140625 58.7197265625 6313.379150390625 45.019775390625Q6302.63916015625 31.31982421875 6280.19921875 19.39990234375Q6253.75927734375 4.9599609375 6205.199462890625 -5.219970703125Q6156.6396484375 -15.39990234375 6107.7998046875 -15.39990234375Q6013.35986328125 -15.39990234375 5938.5 18.1201171875Q5863.64013671875 51.64013671875 5820.76025390625 122.1201171875Q5777.88037109375 192.60009765625 5777.88037109375 302.52001953125Q5777.88037109375 408.56005859375 5821.7802734375 479.780029296875Q5865.68017578125 551 5939.239990234375 586.9599609375Q6012.7998046875 622.919921875 6101.99951171875 622.919921875Q6161.87939453125 622.919921875 6206.559326171875 610.199951171875Q6251.2392578125 597.47998046875 6275.71923828125 576.360107421875Q6300.19921875 555.240234375 6300.19921875 529.5205078125Q6300.19921875 510.7607421875 6289.79931640625 495.94091796875Q6279.3994140625 481.12109375 6265.51953125 473.2412109375Q6239.4794921875 489.80126953125 6201.99951171875 504.581298828125Q6164.51953125 519.361328125 6110.83935546875 519.361328125Q6052.63916015625 519.361328125 6006.43896484375 494.001220703125Q5960.23876953125 468.64111328125 5934.0986328125 420.3408203125Q5907.95849609375 372.04052734375 5907.95849609375 303Q5907.95849609375 229.4794921875 5934.138671875 181.69921875Q5960.31884765625 133.9189453125 6006.119140625 110.798828125Q6051.91943359375 87.6787109375 6109.759765625 87.6787109375Q6139.0400390625 87.6787109375 6163.600341796875 92.958740234375Q6188.16064453125 98.23876953125 6201.8408203125 104.8388671875V246.6005859375H6071.9599609375Q6067.52001953125 254.48046875 6063.320068359375 267.540283203125Q6059.1201171875 280.60009765625 6059.1201171875 295.39990234375Q6059.1201171875 321.51953125 6071.199951171875 334.139404296875Q6083.27978515625 346.75927734375 6103.5595703125 346.75927734375H6271.51953125Q6295.279296875 346.75927734375 6309.69921875 332.859375Q6324.119140625 318.95947265625 6324.119140625 294.6796875Z" fill="#DCEFE4"/></g></svg>