<svg xmlns="http://www.w3.org/2000/svg" width="665.9" height="271.8" viewBox="0 0 665.9 271.8" role="img" aria-label="SOONGONG SOONGONG"><rect width="665.9" height="271.8" rx="29.7" fill="#5E9C7B"/><polygon points="299.34,86.61 299.34,56.07 320.72,68.29 332.93,43.85 345.15,68.29 366.53,56.07 366.53,86.61" fill="#FFF1D6" stroke="#FFF1D6" stroke-width="9.16" stroke-linejoin="round"/><g transform="translate(39.45,176.58) scale(0.11,-0.11)"><path d="M251 124Q300 124 320 140Q340 156 340 176Q340 196 324 207.5Q308 219 279 229L237 243Q179 263 134.5 285.5Q90 308 65 344Q40 380 40 438Q40 523 105.5 574Q171 625 289 625Q347 625 392 614Q437 603 463 580.5Q489 558 489 523Q489 498 477 479Q465 460 448 447Q426 461 389 471.5Q352 482 308 482Q263 482 242 469.5Q221 457 221 438Q221 423 234.5 413.5Q248 404 273 396L326 379Q421 349 471 301.5Q521 254 521 174Q521 89 453.5 35.5Q386 -18 257 -18Q196 -18 147 -5Q98 8 69 34Q40 60 40 97Q40 126 57 146.5Q74 167 94 178Q122 156 162.5 140Q203 124 251 124ZM1219 304Q1219 200 1177.5 128Q1136 56 1064.5 19Q993 -18 902 -18Q811 -18 739.5 19Q668 56 627 128Q586 200 586 304Q586 408 628 479.5Q670 551 741.5 588Q813 625 902 625Q991 625 1063 588Q1135 551 1177 479.5Q1219 408 1219 304ZM1039 304Q1039 393 1002 438.5Q965 484 902 484Q841 484 803.5 439Q766 394 766 304Q766 213 803.5 168Q841 123 903 123Q965 123 1002 168Q1039 213 1039 304ZM1922 304Q1922 200 1880.5 128Q1839 56 1767.5 19Q1696 -18 1605 -18Q1514 -18 1442.5 19Q1371 56 1330 128Q1289 200 1289 304Q1289 408 1331 479.5Q1373 551 1444.5 588Q1516 625 1605 625Q1694 625 1766 588Q1838 551 1880 479.5Q1922 408 1922 304ZM1742 304Q1742 393 1705 438.5Q1668 484 1605 484Q1544 484 1506.5 439Q1469 394 1469 304Q1469 213 1506.5 168Q1544 123 1606 123Q1668 123 1705 168Q1742 213 1742 304ZM2022 400H2183Q2187 354 2188.5 312Q2190 270 2190 232.5Q2190 195 2190 159V0Q2180 -2 2157.5 -5Q2135 -8 2112 -8Q2062 -8 2042 9.5Q2022 27 2022 72ZM2571 210H2410Q2404 280 2403.5 339Q2403 398 2403 451V609Q2414 611 2436 614Q2458 617 2481 617Q2531 617 2551 599.5Q2571 582 2571 537ZM2571 264V21Q2557 8 2530.5 0Q2504 -8 2467 -8Q2430 -8 2397 3Q2364 14 2343 56L2244 258Q2234 279 2225.5 297.5Q2217 316 2209 336Q2201 356 2191 380L2022 343V575Q2036 595 2065 605Q2094 615 2127 615Q2164 615 2197.5 603.5Q2231 592 2251 551L2351 349Q2361 329 2369.5 310Q2378 291 2386.5 271Q2395 251 2404 227ZM3250 303V97Q3250 66 3239 51Q3228 36 3204 22Q3176 6 3122.5 -6Q3069 -18 3016 -18Q2920 -18 2841.5 15Q2763 48 2717 119Q2671 190 2671 302Q2671 407 2717.5 479Q2764 551 2842.5 588Q2921 625 3018 625Q3081 625 3127.5 611.5Q3174 598 3199 573.5Q3224 549 3224 516Q3224 491 3211 471.5Q3198 452 3181 441Q3156 456 3118 470Q3080 484 3031 484Q2978 484 2937 461.5Q2896 439 2873.5 398.5Q2851 358 2851 303Q2851 243 2872.5 202.5Q2894 162 2932 142Q2970 122 3019 122Q3041 122 3057.5 126.5Q3074 131 3083 135V231H2976Q2970 242 2964.5 260Q2959 278 2959 298Q2959 334 2975.5 350Q2992 366 3018 366H3187Q3217 366 3233.5 349.5Q3250 333 3250 303ZM3968 304Q3968 200 3926.5 128Q3885 56 3813.5 19Q3742 -18 3651 -18Q3560 -18 3488.5 19Q3417 56 3376 128Q3335 200 3335 304Q3335 408 3377 479.5Q3419 551 3490.5 588Q3562 625 3651 625Q3740 625 3812 588Q3884 551 3926 479.5Q3968 408 3968 304ZM3788 304Q3788 393 3751 438.5Q3714 484 3651 484Q3590 484 3552.5 439Q3515 394 3515 304Q3515 213 3552.5 168Q3590 123 3652 123Q3714 123 3751 168Q3788 213 3788 304ZM4068 400H4229Q4233 354 4234.5 312Q4236 270 4236 232.5Q4236 195 4236 159V0Q4226 -2 4203.5 -5Q4181 -8 4158 -8Q4108 -8 4088 9.5Q4068 27 4068 72ZM4617 210H4456Q4450 280 4449.5 339Q4449 398 4449 451V609Q4460 611 4482 614Q4504 617 4527 617Q4577 617 4597 599.5Q4617 582 4617 537ZM4617 264V21Q4603 8 4576.5 0Q4550 -8 4513 -8Q4476 -8 4443 3Q4410 14 4389 56L4290 258Q4280 279 4271.5 297.5Q4263 316 4255 336Q4247 356 4237 380L4068 343V575Q4082 595 4111 605Q4140 615 4173 615Q4210 615 4243.5 603.5Q4277 592 4297 551L4397 349Q4407 329 4415.5 310Q4424 291 4432.5 271Q4441 251 4450 227ZM5296 303V97Q5296 66 5285 51Q5274 36 5250 22Q5222 6 5168.5 -6Q5115 -18 5062 -18Q4966 -18 4887.5 15Q4809 48 4763 119Q4717 190 4717 302Q4717 407 4763.5 479Q4810 551 4888.5 588Q4967 625 5064 625Q5127 625 5173.5 611.5Q5220 598 5245 573.5Q5270 549 5270 516Q5270 491 5257 471.5Q5244 452 5227 441Q5202 456 5164 470Q5126 484 5077 484Q5024 484 4983 461.5Q4942 439 4919.5 398.5Q4897 358 4897 303Q4897 243 4918.5 202.5Q4940 162 4978 142Q5016 122 5065 122Q5087 122 5103.5 126.5Q5120 131 5129 135V231H5022Q5016 242 5010.5 260Q5005 278 5005 298Q5005 334 5021.5 350Q5038 366 5064 366H5233Q5263 366 5279.5 349.5Q5296 333 5296 303Z" fill="#FFFFFF"/></g><g transform="translate(270.53,226.86) scale(0.03,-0.03)"><path d="M681 288Q631 286 584 285Q537 284 486 284Q485 263 484 246.5Q483 230 483 202Q481 191 473.5 183Q466 175 456 169Q446 163 434.5 160.5Q423 158 413 158Q383 160 366.5 173Q350 186 347 216Q345 236 346.5 251Q348 266 348 286Q325 286 288.5 286.5Q252 287 213 287.5Q174 288 138 289Q102 290 81 292Q65 294 55.5 296.5Q46 299 33 311Q26 317 23 327Q20 337 20 348Q20 369 33 382Q40 390 52 394Q64 398 75 400Q86 402 94.5 402Q103 402 104 402H676Q691 402 706 402Q721 402 735 401Q749 400 762.5 397Q776 394 787 384Q798 376 799.5 366Q801 356 801 344Q801 329 792.5 317Q784 305 769 300Q749 292 725.5 290.5Q702 289 681 288ZM259 500Q240 487 221.5 472Q203 457 177 452Q168 450 158.5 448Q149 446 140 447Q131 448 122.5 452.5Q114 457 107 468Q99 480 98.5 490.5Q98 501 102.5 510Q107 519 114 527Q121 535 129 542Q159 569 191.5 598.5Q224 628 258 651Q269 658 283.5 670.5Q298 683 312 695Q328 709 345 724Q343 738 344 751Q345 762 349 774.5Q353 787 364 795Q377 804 399 807Q421 810 437 806Q460 800 467.5 787Q475 774 478 756Q480 741 484 728Q488 715 499 702Q507 693 519.5 684Q532 675 542 667Q577 637 610.5 611Q644 585 680 555Q692 546 700.5 531.5Q709 517 712 502.5Q715 488 710.5 474.5Q706 461 691 453Q662 442 635.5 454.5Q609 467 590 484Q570 499 544 514.5Q518 530 499 547L410 611Q396 600 385 591Q375 583 366.5 577Q358 571 356 569Q334 552 308.5 534.5Q283 517 259 500ZM709 89Q710 89 716 87Q722 85 729.5 80.5Q737 76 743.5 68.5Q750 61 752 51Q758 13 740 -8Q729 -22 716 -25Q703 -28 702 -28H156Q118 -28 96 -15.5Q74 -3 74 20V119Q72 141 74 164Q76 185 90 198Q104 211 125 211Q130 211 138.5 210.5Q147 210 152 208Q165 204 172 196Q179 188 183 177.5Q187 167 188 155.5Q189 144 190 133Q190 125 191 111.5Q192 98 194 91Q196 90 212.5 88.5Q229 87 264 87Q294 87 317.5 88Q341 89 342 89ZM1733 220Q1755 212 1773 202.5Q1791 193 1804 178Q1829 152 1829 103Q1829 56 1804 27Q1791 13 1773 3.5Q1755 -6 1733 -14Q1711 -21 1684.5 -25.5Q1658 -30 1628 -33Q1599 -35 1567.5 -36Q1536 -37 1501 -37Q1466 -37 1434.5 -36Q1403 -35 1373 -33Q1344 -30 1317.5 -25.5Q1291 -21 1269 -14Q1247 -6 1229.5 3.5Q1212 13 1198 27Q1173 56 1173 103Q1173 144 1198 172Q1212 186 1229.5 197Q1247 208 1269 216Q1291 224 1317.5 228.5Q1344 233 1373 236Q1403 240 1434.5 241.5Q1466 243 1501 243Q1536 243 1567.5 242Q1599 241 1628 239Q1658 237 1684.5 232.5Q1711 228 1733 220ZM1710 523Q1710 529 1710.5 540Q1711 551 1711 563.5Q1711 576 1709.5 586.5Q1708 597 1704 602Q1700 606 1687.5 607Q1675 608 1660 608Q1645 608 1631 607Q1617 606 1610 606Q1557 606 1498.5 607Q1440 608 1388 609Q1336 610 1296.5 611Q1257 612 1242 613Q1218 613 1198 623Q1178 633 1173 661Q1168 680 1174.5 702Q1181 724 1200 735Q1211 741 1223 743Q1235 745 1248 747Q1313 752 1375.5 751.5Q1438 751 1503 749Q1554 749 1603.5 748Q1653 747 1704 747Q1729 747 1760 742.5Q1791 738 1810 717Q1824 700 1825.5 681Q1827 662 1829 642V572Q1830 552 1829.5 529Q1829 506 1824.5 486Q1820 466 1809.5 452Q1799 438 1779 437Q1753 435 1739 442.5Q1725 450 1718.5 462Q1712 474 1711 490Q1710 506 1710 523ZM1865 397Q1874 389 1875 372.5Q1876 356 1873 343Q1869 332 1863 329Q1860 324 1853.5 321Q1847 318 1841 316Q1835 314 1829.5 313Q1824 312 1819 312Q1774 306 1732 308Q1690 310 1647 310H1252Q1229 307 1206 310Q1193 310 1181.5 312.5Q1170 315 1160 323Q1146 334 1142 354Q1138 374 1149 389Q1160 401 1175 409Q1207 418 1240 416.5Q1273 415 1306 415H1413Q1413 433 1413 452Q1413 471 1415 490Q1417 520 1436.5 532.5Q1456 545 1482 542Q1507 540 1519 527Q1531 514 1535.5 495Q1540 476 1539.5 455Q1539 434 1539 415H1795Q1808 415 1818.5 414.5Q1829 414 1837 411Q1846 407 1851.5 405.5Q1857 404 1865 397ZM1680 74Q1688 79 1693 86.5Q1698 94 1698 103Q1698 111 1693 117Q1688 123 1680 126Q1671 131 1660 133.5Q1649 136 1634 138Q1619 142 1603 142.5Q1587 143 1570 145H1432Q1415 143 1400 142.5Q1385 142 1371 138Q1343 135 1328 126Q1310 120 1310 103Q1310 89 1328 80Q1336 75 1346.5 72.5Q1357 70 1371 67Q1385 65 1400 64Q1415 63 1432 63Q1449 63 1466 62Q1483 61 1501 61H1570Q1587 61 1603 61Q1619 61 1634 63Q1649 65 1660 67.5Q1671 70 1680 74ZM2942 723Q2947 714 2946.5 703.5Q2946 693 2948 682V89Q2948 75 2947.5 60.5Q2947 46 2945 32Q2943 10 2927 -3.5Q2911 -17 2888 -15Q2869 -13 2859 -2.5Q2849 8 2844.5 23Q2840 38 2839 55.5Q2838 73 2838 89V335H2767V92Q2769 78 2768 66.5Q2767 55 2767 44Q2765 30 2761 21Q2757 12 2753 6Q2744 -5 2728.5 -11Q2713 -17 2699 -12Q2683 -6 2674 5Q2665 16 2660.5 29.5Q2656 43 2655 57.5Q2654 72 2654 86Q2654 95 2652.5 101.5Q2651 108 2651 113V663Q2651 671 2652.5 679Q2654 687 2654 693Q2654 702 2656 710.5Q2658 719 2660 726Q2662 733 2666 739Q2670 745 2675 752Q2680 759 2686.5 762Q2693 765 2701 767Q2712 772 2723 767Q2728 765 2733.5 762.5Q2739 760 2741 755Q2748 750 2753.5 743.5Q2759 737 2761 726Q2763 717 2765 706Q2767 695 2767 682V456H2838V687Q2838 696 2838.5 705Q2839 714 2841 723Q2845 741 2853 752Q2860 759 2867 763Q2874 767 2885 767Q2896 769 2907 765.5Q2918 762 2925 755Q2931 748 2935.5 741Q2940 734 2942 723ZM2578 129Q2584 127 2588.5 123Q2593 119 2598 114Q2610 106 2610 88Q2612 81 2610.5 73.5Q2609 66 2607 61Q2602 53 2598 48.5Q2594 44 2589 40Q2583 38 2576 34.5Q2569 31 2560 31Q2553 29 2545 27Q2537 25 2530 25H2383Q2374 25 2363.5 26.5Q2353 28 2342 28Q2333 28 2322 30Q2311 32 2303 34Q2283 39 2267 51Q2260 56 2254.5 63.5Q2249 71 2244 82Q2235 91 2235 105Q2233 114 2232 121Q2231 128 2229 135V618Q2227 624 2226.5 632.5Q2226 641 2226 650Q2228 657 2229 666Q2230 675 2232 683Q2232 699 2241 713Q2246 718 2250.5 722Q2255 726 2261 728Q2274 737 2288 737Q2295 739 2300 739.5Q2305 740 2311 742H2497Q2504 740 2512.5 739.5Q2521 739 2528 737Q2546 737 2560 728Q2576 720 2581 704Q2583 697 2584.5 690Q2586 683 2584 675Q2584 665 2583.5 660Q2583 655 2581 650Q2573 639 2554 629Q2547 629 2532.5 627.5Q2518 626 2497 626H2395Q2381 626 2371 621Q2367 621 2363 612Q2361 607 2359 603Q2357 599 2357 594V556L2360 188Q2360 174 2360.5 165.5Q2361 157 2366 153Q2373 144 2392 144H2429Q2440 144 2451.5 142.5Q2463 141 2476 141H2525Q2531 141 2537.5 140.5Q2544 140 2551 138Q2564 138 2578 129ZM3372 121Q3372 166 3398.5 196Q3425 226 3470 243.5Q3515 261 3576 268Q3637 275 3706 275Q3775 275 3836 270Q3897 265 3942 248.5Q3987 232 4013.5 202Q4040 172 4040 121Q4040 71 4013.5 41Q3987 11 3942 -5.5Q3897 -22 3836 -27.5Q3775 -33 3706 -33Q3637 -33 3576 -27.5Q3515 -22 3470 -5.5Q3425 11 3398.5 41Q3372 71 3372 121ZM3620 647Q3620 647 3619.5 633Q3619 619 3619 602Q3619 585 3619.5 570Q3620 555 3620 553Q3625 548 3638 536.5Q3651 525 3660 517Q3670 509 3680.5 499.5Q3691 490 3702 479Q3709 472 3715 465.5Q3721 459 3726 454Q3745 435 3764 413Q3783 391 3790 368Q3793 359 3791 348Q3789 337 3778 329Q3761 319 3742 319Q3720 319 3700 328Q3680 337 3668 346Q3649 360 3633 375.5Q3617 391 3601 407Q3590 418 3576 432.5Q3562 447 3548 458L3521 431Q3514 424 3507 417.5Q3500 411 3494 404Q3481 390 3467 375.5Q3453 361 3435 348Q3394 318 3358 318Q3353 318 3349.5 318Q3346 318 3341 320Q3319 325 3312 338Q3305 349 3307.5 363Q3310 377 3316 388Q3324 399 3334 409.5Q3344 420 3354 431Q3363 441 3382.5 459.5Q3402 478 3422 497.5Q3442 517 3459 533Q3476 549 3480 553V647H3416Q3404 647 3388 646.5Q3372 646 3356.5 648Q3341 650 3328 656.5Q3315 663 3309 678Q3304 689 3302.5 703Q3301 717 3304 729Q3308 743 3322 748.5Q3336 754 3349 756Q3351 756 3365.5 756Q3380 756 3397 756Q3414 756 3429 756Q3444 756 3447 757H3681Q3721 757 3748.5 752Q3776 747 3793 727Q3798 721 3799.5 711Q3801 701 3799.5 690.5Q3798 680 3793.5 671Q3789 662 3781 658Q3773 655 3762 651.5Q3751 648 3743 647Q3729 646 3714.5 646.5Q3700 647 3686 647ZM4022 470V369Q4021 358 4019 346.5Q4017 335 4011 324Q4005 312 3994 304Q3986 299 3975.5 296.5Q3965 294 3957 294Q3949 294 3940 295.5Q3931 297 3925 301Q3915 307 3909 316Q3903 325 3899.5 333.5Q3896 342 3895 348.5Q3894 355 3894 355V695Q3893 699 3895 717Q3897 735 3903 747Q3908 757 3920.5 763Q3933 769 3947 771Q3964 773 3981 769Q3998 765 4006 756Q4012 748 4014.5 740.5Q4017 733 4019 725Q4022 715 4022.5 704Q4023 693 4022 682V613V604Q4022 599 4021.5 593.5Q4021 588 4022 581Q4026 581 4037 580.5Q4048 580 4060 579.5Q4072 579 4083 578Q4094 577 4099 576Q4119 572 4127 564.5Q4135 557 4137 546Q4140 535 4140 520.5Q4140 506 4134 496Q4122 476 4098 473.5Q4074 471 4045 470ZM3905 121Q3905 138 3887 148Q3869 158 3840.5 163Q3812 168 3776.5 169.5Q3741 171 3706 171Q3671 171 3636.5 169.5Q3602 168 3574.5 163Q3547 158 3530 148Q3513 138 3513 121Q3513 106 3530 96Q3547 86 3574.5 81Q3602 76 3636.5 74Q3671 72 3706 72Q3741 72 3776.5 72Q3812 72 3840.5 76Q3869 80 3887 90.5Q3905 101 3905 121Z" fill="#DCEFE4"/></g></svg>